<svg width="100" height="100" viewBox="0 0 100 100" fill="none" xmlns="http://www.w3.org/2000/svg">
<rect width="100" height="100" fill="#F4EFEC"/>
<g filter="url(#filter0_d_0_1)">
<path d="M50.9688 44.8125C51.4479 44.8125 52.0208 44.7604 52.6875 44.6562C53.3542 44.5521 53.9896 44.375 54.5938 44.125C55.1979 43.875 55.7083 43.5417 56.125 43.125C56.5625 42.6875 56.7812 42.1458 56.7812 41.5C56.7812 40.9583 56.6146 40.5208 56.2812 40.1875C55.9688 39.8542 55.5833 39.5938 55.125 39.4062C54.6667 39.2188 54.1771 39.0938 53.6562 39.0312C53.1354 38.9479 52.6771 38.9062 52.2812 38.9062C51.7812 38.9062 51.2396 38.9375 50.6562 39C50.0729 39.0625 49.5208 39.1979 49 39.4062C48.5 39.6146 48.0833 39.9167 47.75 40.3125C47.4167 40.6875 47.25 41.2083 47.25 41.875C47.25 42.375 47.3646 42.8125 47.5938 43.1875C47.8229 43.5417 48.1146 43.8438 48.4688 44.0938C48.8229 44.3438 49.2188 44.5312 49.6562 44.6562C50.0938 44.7604 50.5312 44.8125 50.9688 44.8125ZM50.5312 73.1562C50.0312 73.1562 49.5208 73.1146 49 73.0312C48.5 72.9479 48 72.8542 47.5 72.75C47 72.6458 46.5 72.5521 46 72.4688C45.5 72.3854 45 72.3438 44.5 72.3438C44.1667 72.3438 43.8333 72.3854 43.5 72.4688C43.1875 72.5521 42.8646 72.6458 42.5312 72.75C42.2188 72.8542 41.9062 72.9479 41.5938 73.0312C41.2812 73.1146 40.9479 73.1562 40.5938 73.1562C39.3438 73.1562 38.2396 73.0521 37.2812 72.8438C36.3229 72.6354 35.5104 72.2708 34.8438 71.75C34.1979 71.2292 33.6979 70.5417 33.3438 69.6875C33.0104 68.8125 32.8438 67.7083 32.8438 66.375C32.8438 64.625 33 62.8542 33.3125 61.0625C33.6458 59.2708 34 57.4583 34.375 55.625C34.75 53.7708 35.0938 51.9062 35.4062 50.0312C35.7396 48.1354 35.9062 46.2188 35.9062 44.2812C35.9062 42.2396 35.6875 40.3542 35.25 38.625C34.8333 36.8958 34.1354 35.1354 33.1562 33.3438C33.0312 33.1146 32.9167 32.875 32.8125 32.625C32.7083 32.3542 32.6562 32.0729 32.6562 31.7812C32.6562 31.0729 32.9271 30.5 33.4688 30.0625C34.0312 29.6042 34.6875 29.25 35.4375 29C36.2083 28.75 36.9896 28.5833 37.7812 28.5C38.5938 28.3958 39.2604 28.3438 39.7812 28.3438C41.7812 28.3438 43.6875 28.7188 45.5 29.4688C46.8125 29.1146 48.1458 28.8333 49.5 28.625C50.8542 28.4167 52.2188 28.3125 53.5938 28.3125C55.3438 28.3125 57.1042 28.5417 58.875 29C60.6458 29.4583 62.2396 30.1667 63.6562 31.125C65.0938 32.0833 66.2604 33.3021 67.1562 34.7812C68.0521 36.2396 68.5 37.9688 68.5 39.9688C68.5 41.8021 68.0729 43.4688 67.2188 44.9688C66.3646 46.4688 65.2396 47.7708 63.8438 48.875C64.8854 49.3958 65.875 50.0208 66.8125 50.75C67.7708 51.4792 68.6042 52.3021 69.3125 53.2188C70.0417 54.1354 70.6146 55.1458 71.0312 56.25C71.4479 57.3333 71.6562 58.4896 71.6562 59.7188C71.6562 61.4479 71.3229 62.9896 70.6562 64.3438C69.9896 65.6771 69.0938 66.8438 67.9688 67.8438C66.8646 68.8229 65.5833 69.6562 64.125 70.3438C62.6875 71.0104 61.1875 71.5625 59.625 72C58.0625 72.4167 56.4896 72.7188 54.9062 72.9062C53.3438 73.0729 51.8854 73.1562 50.5312 73.1562ZM53.4062 60.125C53.9688 60.125 54.5938 60.0729 55.2812 59.9688C55.9896 59.8646 56.6458 59.6771 57.25 59.4062C57.875 59.1146 58.3958 58.7396 58.8125 58.2812C59.2292 57.8021 59.4375 57.1979 59.4375 56.4688C59.4375 55.7396 59.2188 55.1562 58.7812 54.7188C58.3438 54.2812 57.8021 53.9479 57.1562 53.7188C56.5312 53.4688 55.8646 53.3021 55.1562 53.2188C54.4479 53.1354 53.8333 53.0938 53.3125 53.0938C52.8542 53.0938 52.3646 53.1458 51.8438 53.25C51.3438 53.3542 50.8854 53.5208 50.4688 53.75C50.0521 53.9792 49.7083 54.2917 49.4375 54.6875C49.1667 55.0833 49.0312 55.5625 49.0312 56.125C49.0312 56.6875 49.1562 57.2083 49.4062 57.6875C49.6771 58.1667 50.0208 58.5938 50.4375 58.9688C50.8542 59.3229 51.3229 59.6042 51.8438 59.8125C52.3646 60.0208 52.8854 60.125 53.4062 60.125Z" fill="#F0D9D1"/>
<path d="M49.9688 43.8125C50.4479 43.8125 51.0208 43.7604 51.6875 43.6562C52.3542 43.5521 52.9896 43.375 53.5938 43.125C54.1979 42.875 54.7083 42.5417 55.125 42.125C55.5625 41.6875 55.7812 41.1458 55.7812 40.5C55.7812 39.9583 55.6146 39.5208 55.2812 39.1875C54.9688 38.8542 54.5833 38.5938 54.125 38.4062C53.6667 38.2188 53.1771 38.0938 52.6562 38.0312C52.1354 37.9479 51.6771 37.9062 51.2812 37.9062C50.7812 37.9062 50.2396 37.9375 49.6562 38C49.0729 38.0625 48.5208 38.1979 48 38.4062C47.5 38.6146 47.0833 38.9167 46.75 39.3125C46.4167 39.6875 46.25 40.2083 46.25 40.875C46.25 41.375 46.3646 41.8125 46.5938 42.1875C46.8229 42.5417 47.1146 42.8438 47.4688 43.0938C47.8229 43.3438 48.2188 43.5312 48.6562 43.6562C49.0938 43.7604 49.5312 43.8125 49.9688 43.8125ZM49.5312 72.1562C49.0312 72.1562 48.5208 72.1146 48 72.0312C47.5 71.9479 47 71.8542 46.5 71.75C46 71.6458 45.5 71.5521 45 71.4688C44.5 71.3854 44 71.3438 43.5 71.3438C43.1667 71.3438 42.8333 71.3854 42.5 71.4688C42.1875 71.5521 41.8646 71.6458 41.5312 71.75C41.2188 71.8542 40.9062 71.9479 40.5938 72.0312C40.2812 72.1146 39.9479 72.1562 39.5938 72.1562C38.3438 72.1562 37.2396 72.0521 36.2812 71.8438C35.3229 71.6354 34.5104 71.2708 33.8438 70.75C33.1979 70.2292 32.6979 69.5417 32.3438 68.6875C32.0104 67.8125 31.8438 66.7083 31.8438 65.375C31.8438 63.625 32 61.8542 32.3125 60.0625C32.6458 58.2708 33 56.4583 33.375 54.625C33.75 52.7708 34.0938 50.9062 34.4062 49.0312C34.7396 47.1354 34.9062 45.2188 34.9062 43.2812C34.9062 41.2396 34.6875 39.3542 34.25 37.625C33.8333 35.8958 33.1354 34.1354 32.1562 32.3438C32.0312 32.1146 31.9167 31.875 31.8125 31.625C31.7083 31.3542 31.6562 31.0729 31.6562 30.7812C31.6562 30.0729 31.9271 29.5 32.4688 29.0625C33.0312 28.6042 33.6875 28.25 34.4375 28C35.2083 27.75 35.9896 27.5833 36.7812 27.5C37.5938 27.3958 38.2604 27.3438 38.7812 27.3438C40.7812 27.3438 42.6875 27.7188 44.5 28.4688C45.8125 28.1146 47.1458 27.8333 48.5 27.625C49.8542 27.4167 51.2188 27.3125 52.5938 27.3125C54.3438 27.3125 56.1042 27.5417 57.875 28C59.6458 28.4583 61.2396 29.1667 62.6562 30.125C64.0938 31.0833 65.2604 32.3021 66.1562 33.7812C67.0521 35.2396 67.5 36.9688 67.5 38.9688C67.5 40.8021 67.0729 42.4688 66.2188 43.9688C65.3646 45.4688 64.2396 46.7708 62.8438 47.875C63.8854 48.3958 64.875 49.0208 65.8125 49.75C66.7708 50.4792 67.6042 51.3021 68.3125 52.2188C69.0417 53.1354 69.6146 54.1458 70.0312 55.25C70.4479 56.3333 70.6562 57.4896 70.6562 58.7188C70.6562 60.4479 70.3229 61.9896 69.6562 63.3438C68.9896 64.6771 68.0938 65.8438 66.9688 66.8438C65.8646 67.8229 64.5833 68.6562 63.125 69.3438C61.6875 70.0104 60.1875 70.5625 58.625 71C57.0625 71.4167 55.4896 71.7188 53.9062 71.9062C52.3438 72.0729 50.8854 72.1562 49.5312 72.1562ZM52.4062 59.125C52.9688 59.125 53.5938 59.0729 54.2812 58.9688C54.9896 58.8646 55.6458 58.6771 56.25 58.4062C56.875 58.1146 57.3958 57.7396 57.8125 57.2812C58.2292 56.8021 58.4375 56.1979 58.4375 55.4688C58.4375 54.7396 58.2188 54.1562 57.7812 53.7188C57.3438 53.2812 56.8021 52.9479 56.1562 52.7188C55.5312 52.4688 54.8646 52.3021 54.1562 52.2188C53.4479 52.1354 52.8333 52.0938 52.3125 52.0938C51.8542 52.0938 51.3646 52.1458 50.8438 52.25C50.3438 52.3542 49.8854 52.5208 49.4688 52.75C49.0521 52.9792 48.7083 53.2917 48.4375 53.6875C48.1667 54.0833 48.0312 54.5625 48.0312 55.125C48.0312 55.6875 48.1562 56.2083 48.4062 56.6875C48.6771 57.1667 49.0208 57.5938 49.4375 57.9688C49.8542 58.3229 50.3229 58.6042 50.8438 58.8125C51.3646 59.0208 51.8854 59.125 52.4062 59.125Z" fill="#DDB7AC"/>
</g>
<defs>
<filter id="filter0_d_0_1" x="-4" y="0" width="108" height="108" filterUnits="userSpaceOnUse" color-interpolation-filters="sRGB">
<feFlood flood-opacity="0" result="BackgroundImageFix"/>
<feColorMatrix in="SourceAlpha" type="matrix" values="0 0 0 0 0 0 0 0 0 0 0 0 0 0 0 0 0 0 127 0" result="hardAlpha"/>
<feOffset dy="4"/>
<feGaussianBlur stdDeviation="2"/>
<feComposite in2="hardAlpha" operator="out"/>
<feColorMatrix type="matrix" values="0 0 0 0 0 0 0 0 0 0 0 0 0 0 0 0 0 0 0.25 0"/>
<feBlend mode="normal" in2="BackgroundImageFix" result="effect1_dropShadow_0_1"/>
<feBlend mode="normal" in="SourceGraphic" in2="effect1_dropShadow_0_1" result="shape"/>
</filter>
</defs>
</svg>
