<svg width="248" height="100" viewBox="0 0 248 100" fill="none" xmlns="http://www.w3.org/2000/svg">
<path d="M31.4688 45.4125C31.9479 45.4125 32.5208 45.3604 33.1875 45.2563C33.8542 45.1521 34.4896 44.975 35.0938 44.725C35.6979 44.475 36.2083 44.1417 36.625 43.725C37.0625 43.2875 37.2812 42.7458 37.2812 42.1C37.2812 41.5583 37.1146 41.1208 36.7812 40.7875C36.4688 40.4542 36.0833 40.1938 35.625 40.0063C35.1667 39.8188 34.6771 39.6938 34.1562 39.6313C33.6354 39.5479 33.1771 39.5063 32.7812 39.5063C32.2812 39.5063 31.7396 39.5375 31.1562 39.6C30.5729 39.6625 30.0208 39.7979 29.5 40.0063C29 40.2146 28.5833 40.5167 28.25 40.9125C27.9167 41.2875 27.75 41.8083 27.75 42.475C27.75 42.975 27.8646 43.4125 28.0938 43.7875C28.3229 44.1417 28.6146 44.4438 28.9688 44.6938C29.3229 44.9438 29.7188 45.1313 30.1562 45.2563C30.5938 45.3604 31.0312 45.4125 31.4688 45.4125ZM31.0312 73.7563C30.5312 73.7563 30.0208 73.7146 29.5 73.6313C29 73.5479 28.5 73.4542 28 73.35C27.5 73.2458 27 73.1521 26.5 73.0688C26 72.9854 25.5 72.9438 25 72.9438C24.6667 72.9438 24.3333 72.9854 24 73.0688C23.6875 73.1521 23.3646 73.2458 23.0312 73.35C22.7188 73.4542 22.4062 73.5479 22.0938 73.6313C21.7812 73.7146 21.4479 73.7563 21.0938 73.7563C19.8438 73.7563 18.7396 73.6521 17.7812 73.4438C16.8229 73.2354 16.0104 72.8708 15.3438 72.35C14.6979 71.8292 14.1979 71.1417 13.8438 70.2875C13.5104 69.4125 13.3438 68.3083 13.3438 66.975C13.3438 65.225 13.5 63.4542 13.8125 61.6625C14.1458 59.8708 14.5 58.0583 14.875 56.225C15.25 54.3708 15.5938 52.5063 15.9062 50.6313C16.2396 48.7354 16.4062 46.8188 16.4062 44.8813C16.4062 42.8396 16.1875 40.9542 15.75 39.225C15.3333 37.4958 14.6354 35.7354 13.6562 33.9438C13.5312 33.7146 13.4167 33.475 13.3125 33.225C13.2083 32.9542 13.1562 32.6729 13.1562 32.3813C13.1562 31.6729 13.4271 31.1 13.9688 30.6625C14.5312 30.2042 15.1875 29.85 15.9375 29.6C16.7083 29.35 17.4896 29.1833 18.2812 29.1C19.0938 28.9958 19.7604 28.9438 20.2812 28.9438C22.2812 28.9438 24.1875 29.3188 26 30.0688C27.3125 29.7146 28.6458 29.4333 30 29.225C31.3542 29.0167 32.7188 28.9125 34.0938 28.9125C35.8438 28.9125 37.6042 29.1417 39.375 29.6C41.1458 30.0583 42.7396 30.7667 44.1562 31.725C45.5938 32.6833 46.7604 33.9021 47.6562 35.3813C48.5521 36.8396 49 38.5688 49 40.5688C49 42.4021 48.5729 44.0688 47.7188 45.5688C46.8646 47.0688 45.7396 48.3708 44.3438 49.475C45.3854 49.9958 46.375 50.6208 47.3125 51.35C48.2708 52.0792 49.1042 52.9021 49.8125 53.8188C50.5417 54.7354 51.1146 55.7458 51.5312 56.85C51.9479 57.9333 52.1562 59.0896 52.1562 60.3188C52.1562 62.0479 51.8229 63.5896 51.1562 64.9438C50.4896 66.2771 49.5938 67.4438 48.4688 68.4438C47.3646 69.4229 46.0833 70.2563 44.625 70.9438C43.1875 71.6104 41.6875 72.1625 40.125 72.6C38.5625 73.0167 36.9896 73.3188 35.4062 73.5063C33.8438 73.6729 32.3854 73.7563 31.0312 73.7563ZM33.9062 60.725C34.4688 60.725 35.0938 60.6729 35.7812 60.5688C36.4896 60.4646 37.1458 60.2771 37.75 60.0063C38.375 59.7146 38.8958 59.3396 39.3125 58.8813C39.7292 58.4021 39.9375 57.7979 39.9375 57.0688C39.9375 56.3396 39.7188 55.7563 39.2812 55.3188C38.8438 54.8813 38.3021 54.5479 37.6562 54.3188C37.0312 54.0688 36.3646 53.9021 35.6562 53.8188C34.9479 53.7354 34.3333 53.6938 33.8125 53.6938C33.3542 53.6938 32.8646 53.7458 32.3438 53.85C31.8438 53.9542 31.3854 54.1208 30.9688 54.35C30.5521 54.5792 30.2083 54.8917 29.9375 55.2875C29.6667 55.6833 29.5312 56.1625 29.5312 56.725C29.5312 57.2875 29.6562 57.8083 29.9062 58.2875C30.1771 58.7667 30.5208 59.1938 30.9375 59.5688C31.3542 59.9229 31.8229 60.2042 32.3438 60.4125C32.8646 60.6208 33.3854 60.725 33.9062 60.725ZM71.75 73.6C69.6875 73.6 67.8021 73.3083 66.0938 72.725C64.3854 72.1417 62.8542 71.3292 61.5 70.2875C60.1458 69.2458 58.9583 68.0271 57.9375 66.6313C56.9167 65.2146 56.0625 63.6833 55.375 62.0375C54.7083 60.3708 54.2083 58.6313 53.875 56.8188C53.5417 54.9854 53.375 53.1417 53.375 51.2875C53.375 49.4542 53.5417 47.6313 53.875 45.8188C54.2083 43.9854 54.7083 42.2354 55.375 40.5688C56.0417 38.9021 56.875 37.35 57.875 35.9125C58.8958 34.475 60.0833 33.2354 61.4375 32.1938C62.7917 31.1313 64.3125 30.3083 66 29.725C67.7083 29.1208 69.5938 28.8188 71.6562 28.8188C73.7396 28.8188 75.6458 29.1208 77.375 29.725C79.125 30.3083 80.6875 31.1313 82.0625 32.1938C83.4583 33.2354 84.6771 34.475 85.7188 35.9125C86.7604 37.35 87.625 38.9125 88.3125 40.6C89.0208 42.2667 89.5417 44.0271 89.875 45.8813C90.2292 47.7146 90.4062 49.5688 90.4062 51.4438C90.4062 53.3188 90.2292 55.1729 89.875 57.0063C89.5417 58.8188 89.0208 60.5479 88.3125 62.1938C87.625 63.8396 86.7604 65.3604 85.7188 66.7563C84.6979 68.1521 83.4896 69.3604 82.0938 70.3813C80.7188 71.3813 79.1667 72.1729 77.4375 72.7563C75.7083 73.3188 73.8125 73.6 71.75 73.6ZM72.4375 58.4125C73.0208 58.4125 73.5208 58.2146 73.9375 57.8188C74.375 57.4021 74.75 56.8708 75.0625 56.225C75.375 55.5792 75.625 54.8604 75.8125 54.0688C76.0208 53.2563 76.1771 52.4646 76.2812 51.6938C76.4062 50.9021 76.4896 50.1625 76.5312 49.475C76.5729 48.7875 76.5938 48.2354 76.5938 47.8188C76.5938 47.3396 76.5729 46.7458 76.5312 46.0375C76.4896 45.3292 76.4062 44.5792 76.2812 43.7875C76.1562 42.9958 75.9792 42.2146 75.75 41.4438C75.5417 40.6729 75.2604 39.975 74.9062 39.35C74.5521 38.725 74.125 38.225 73.625 37.85C73.1458 37.4542 72.5625 37.2563 71.875 37.2563C71.2708 37.2563 70.7396 37.4438 70.2812 37.8188C69.8229 38.1729 69.4375 38.6417 69.125 39.225C68.8125 39.7875 68.5521 40.4333 68.3438 41.1625C68.1562 41.8917 68 42.6208 67.875 43.35C67.7708 44.0583 67.6979 44.7458 67.6562 45.4125C67.6146 46.0583 67.5938 46.6 67.5938 47.0375C67.5938 47.5167 67.6146 48.1313 67.6562 48.8813C67.7188 49.6313 67.8125 50.4333 67.9375 51.2875C68.0833 52.1208 68.2708 52.9646 68.5 53.8188C68.7292 54.6729 69.0208 55.4438 69.375 56.1313C69.7292 56.7979 70.1562 57.35 70.6562 57.7875C71.1562 58.2042 71.75 58.4125 72.4375 58.4125ZM122.875 73.6C122.062 73.6 121.104 73.5375 120 73.4125C118.896 73.2667 117.833 73.0063 116.812 72.6313C115.812 72.2354 114.958 71.7042 114.25 71.0375C113.542 70.35 113.188 69.4646 113.188 68.3813C113.188 68.1938 113.198 68.0167 113.219 67.85C113.24 67.6625 113.271 67.475 113.312 67.2875C113.604 65.9333 113.854 64.6 114.062 63.2875C114.292 61.975 114.406 60.6208 114.406 59.225C114.406 56.8917 114.073 54.6938 113.406 52.6313C112.76 50.5479 111.708 48.5896 110.25 46.7563C110.146 46.6104 109.958 46.3813 109.688 46.0688C109.438 45.7563 109.167 45.4438 108.875 45.1313C108.583 44.7979 108.281 44.5063 107.969 44.2563C107.677 44.0063 107.427 43.8813 107.219 43.8813C107.094 43.8813 106.99 43.9333 106.906 44.0375C106.823 44.1208 106.76 44.225 106.719 44.35C106.698 44.475 106.677 44.6104 106.656 44.7563C106.656 44.8813 106.656 44.9958 106.656 45.1C106.656 46.1 106.719 47.1 106.844 48.1C106.969 49.0792 107.083 50.0688 107.188 51.0688C107.479 53.8813 107.885 56.6313 108.406 59.3188C108.927 62.0063 109.74 64.6625 110.844 67.2875C110.948 67.5583 111.042 67.8292 111.125 68.1C111.208 68.3708 111.25 68.6521 111.25 68.9438C111.25 69.5896 111.073 70.1521 110.719 70.6313C110.385 71.1104 109.948 71.5167 109.406 71.85C108.865 72.1833 108.24 72.4646 107.531 72.6938C106.844 72.9021 106.146 73.0688 105.438 73.1938C104.729 73.3188 104.042 73.4021 103.375 73.4438C102.729 73.4854 102.177 73.5063 101.719 73.5063C101.094 73.5063 100.312 73.4646 99.375 73.3813C98.4375 73.2979 97.5 73.1417 96.5625 72.9125C95.6458 72.6625 94.8021 72.3292 94.0312 71.9125C93.2812 71.4958 92.7604 70.9646 92.4688 70.3188C92.2396 69.8396 92.0833 69.2979 92 68.6938C91.9375 68.0688 91.9062 67.4854 91.9062 66.9438C91.9062 65.1521 92.0938 63.3292 92.4688 61.475C92.8438 59.6208 93.2604 57.7354 93.7188 55.8188C94.1771 53.9021 94.5938 51.9646 94.9688 50.0063C95.3438 48.0271 95.5312 46.0271 95.5312 44.0063C95.5312 42.1521 95.3333 40.4229 94.9375 38.8188C94.5625 37.1938 93.9375 35.5688 93.0625 33.9438C92.9375 33.7146 92.8229 33.475 92.7188 33.225C92.6354 32.975 92.5938 32.7042 92.5938 32.4125C92.5938 31.8917 92.75 31.4438 93.0625 31.0688C93.375 30.6938 93.7812 30.3708 94.2812 30.1C94.8021 29.8292 95.375 29.6104 96 29.4438C96.625 29.2771 97.25 29.1417 97.875 29.0375C98.5 28.9333 99.0938 28.8708 99.6562 28.85C100.219 28.8083 100.688 28.7875 101.062 28.7875C101.479 28.7875 102.052 28.8188 102.781 28.8813C103.531 28.9229 104.281 29.0271 105.031 29.1938C105.781 29.3604 106.448 29.6104 107.031 29.9438C107.615 30.2563 107.948 30.6833 108.031 31.225C108.135 31.975 108.323 32.6417 108.594 33.225C108.865 33.7875 109.24 34.3708 109.719 34.975C109.927 35.2458 110.271 35.6625 110.75 36.225C111.25 36.7667 111.781 37.3083 112.344 37.85C112.927 38.3917 113.49 38.8708 114.031 39.2875C114.594 39.6833 115.042 39.8813 115.375 39.8813C115.542 39.8813 115.656 39.8188 115.719 39.6938C115.781 39.5688 115.812 39.4333 115.812 39.2875C115.812 38.725 115.719 38.1521 115.531 37.5688C115.344 36.9646 115.125 36.3708 114.875 35.7875C114.646 35.2042 114.438 34.6417 114.25 34.1C114.062 33.5375 113.969 33.0063 113.969 32.5063C113.969 31.7354 114.26 31.1208 114.844 30.6625C115.448 30.1833 116.167 29.8188 117 29.5688C117.833 29.2979 118.677 29.1208 119.531 29.0375C120.406 28.9333 121.125 28.8813 121.688 28.8813C122.25 28.8813 122.969 28.9333 123.844 29.0375C124.74 29.1208 125.615 29.2979 126.469 29.5688C127.323 29.8188 128.052 30.1833 128.656 30.6625C129.281 31.1417 129.594 31.7667 129.594 32.5375C129.594 32.7875 129.552 33.0271 129.469 33.2563C129.406 33.4854 129.323 33.7146 129.219 33.9438C128.552 35.3604 128.062 36.7563 127.75 38.1313C127.438 39.4854 127.281 40.9438 127.281 42.5063C127.281 43.7771 127.365 45.0479 127.531 46.3188C127.698 47.5688 127.906 48.8188 128.156 50.0688C128.427 51.2979 128.729 52.5271 129.062 53.7563C129.417 54.9854 129.771 56.2042 130.125 57.4125C130.375 58.225 130.625 59.0583 130.875 59.9125C131.125 60.7667 131.344 61.6208 131.531 62.475C131.74 63.3292 131.906 64.1938 132.031 65.0688C132.177 65.9438 132.25 66.8083 132.25 67.6625C132.25 68.1 132.219 68.5479 132.156 69.0063C132.115 69.4646 132.01 69.9021 131.844 70.3188C131.594 70.9854 131.094 71.5375 130.344 71.975C129.615 72.3917 128.792 72.725 127.875 72.975C126.979 73.2042 126.073 73.3708 125.156 73.475C124.26 73.5583 123.5 73.6 122.875 73.6ZM144.062 73.5375C142.938 73.5375 141.792 73.4021 140.625 73.1313C139.479 72.8396 138.448 72.3917 137.531 71.7875C136.615 71.1833 135.865 70.4125 135.281 69.475C134.698 68.5375 134.406 67.4229 134.406 66.1313C134.406 64.1521 134.698 62.2563 135.281 60.4438C135.865 58.6313 136.562 56.85 137.375 55.1C138.208 53.35 139.073 51.6104 139.969 49.8813C140.885 48.1521 141.667 46.3813 142.312 44.5688C142.958 42.7771 143.396 40.9646 143.625 39.1313C143.875 37.2771 144.031 35.4021 144.094 33.5063C144.115 32.8396 144.302 32.2667 144.656 31.7875C145.031 31.2875 145.5 30.8708 146.062 30.5375C146.646 30.1833 147.292 29.8917 148 29.6625C148.729 29.4333 149.458 29.2563 150.188 29.1313C150.917 29.0063 151.615 28.9229 152.281 28.8813C152.948 28.8396 153.521 28.8188 154 28.8188C154.521 28.8188 155.115 28.8396 155.781 28.8813C156.469 28.9229 157.177 29.0167 157.906 29.1625C158.656 29.2875 159.385 29.4646 160.094 29.6938C160.802 29.9229 161.438 30.225 162 30.6C162.562 30.9542 163.01 31.3917 163.344 31.9125C163.698 32.4333 163.875 33.0479 163.875 33.7563C163.875 35.0688 163.927 36.3708 164.031 37.6625C164.156 38.9333 164.375 40.1938 164.688 41.4438C165.042 42.9229 165.5 44.3604 166.062 45.7563C166.625 47.1313 167.219 48.4854 167.844 49.8188C168.49 51.1521 169.135 52.475 169.781 53.7875C170.448 55.0792 171.042 56.3813 171.562 57.6938C172.083 59.0063 172.51 60.35 172.844 61.725C173.177 63.0792 173.344 64.475 173.344 65.9125C173.344 67.225 173.062 68.3604 172.5 69.3188C171.958 70.2771 171.24 71.0688 170.344 71.6938C169.448 72.3188 168.427 72.7771 167.281 73.0688C166.156 73.3604 165.01 73.5063 163.844 73.5063C163.01 73.5063 162.177 73.4333 161.344 73.2875C160.531 73.1208 159.76 72.8396 159.031 72.4438C158.302 72.0688 157.781 71.6208 157.469 71.1C157.177 70.5583 156.99 69.9854 156.906 69.3813C156.844 68.7563 156.833 68.1208 156.875 67.475C156.938 66.8083 156.969 66.1729 156.969 65.5688C156.99 64.9646 156.927 64.4021 156.781 63.8813C156.635 63.3604 156.323 62.9229 155.844 62.5688C155.156 62.1104 154.427 61.8813 153.656 61.8813C152.719 61.8813 151.99 62.1625 151.469 62.725C150.969 63.2667 150.719 63.9958 150.719 64.9125V69.85C150.719 70.5792 150.469 71.1833 149.969 71.6625C149.49 72.1208 148.906 72.4958 148.219 72.7875C147.531 73.0583 146.802 73.2563 146.031 73.3813C145.281 73.4854 144.625 73.5375 144.062 73.5375ZM153.562 55.0688C154.354 55.0688 154.938 54.7979 155.312 54.2563C155.708 53.6938 155.906 53.0479 155.906 52.3188C155.906 52.0896 155.885 51.7354 155.844 51.2563C155.823 50.7771 155.781 50.2354 155.719 49.6313C155.656 49.0063 155.562 48.3708 155.438 47.725C155.333 47.0792 155.188 46.4958 155 45.975C154.833 45.4333 154.625 44.9958 154.375 44.6625C154.146 44.3083 153.865 44.1313 153.531 44.1313C153.219 44.1313 152.948 44.3188 152.719 44.6938C152.49 45.0479 152.292 45.5167 152.125 46.1C151.979 46.6625 151.854 47.2875 151.75 47.975C151.646 48.6625 151.562 49.3292 151.5 49.975C151.438 50.6 151.396 51.1729 151.375 51.6938C151.354 52.1938 151.344 52.5479 151.344 52.7563C151.344 53.4229 151.542 53.975 151.938 54.4125C152.354 54.85 152.896 55.0688 153.562 55.0688ZM207 73.6C206.188 73.6 205.229 73.5375 204.125 73.4125C203.021 73.2667 201.958 73.0063 200.938 72.6313C199.938 72.2354 199.083 71.7042 198.375 71.0375C197.667 70.35 197.312 69.4646 197.312 68.3813C197.312 68.1938 197.323 68.0167 197.344 67.85C197.365 67.6625 197.396 67.475 197.438 67.2875C197.729 65.9333 197.979 64.6 198.188 63.2875C198.417 61.975 198.531 60.6208 198.531 59.225C198.531 56.8917 198.198 54.6938 197.531 52.6313C196.885 50.5479 195.833 48.5896 194.375 46.7563C194.271 46.6104 194.083 46.3813 193.812 46.0688C193.562 45.7563 193.292 45.4438 193 45.1313C192.708 44.7979 192.406 44.5063 192.094 44.2563C191.802 44.0063 191.552 43.8813 191.344 43.8813C191.219 43.8813 191.115 43.9333 191.031 44.0375C190.948 44.1208 190.885 44.225 190.844 44.35C190.823 44.475 190.802 44.6104 190.781 44.7563C190.781 44.8813 190.781 44.9958 190.781 45.1C190.781 46.1 190.844 47.1 190.969 48.1C191.094 49.0792 191.208 50.0688 191.312 51.0688C191.604 53.8813 192.01 56.6313 192.531 59.3188C193.052 62.0063 193.865 64.6625 194.969 67.2875C195.073 67.5583 195.167 67.8292 195.25 68.1C195.333 68.3708 195.375 68.6521 195.375 68.9438C195.375 69.5896 195.198 70.1521 194.844 70.6313C194.51 71.1104 194.073 71.5167 193.531 71.85C192.99 72.1833 192.365 72.4646 191.656 72.6938C190.969 72.9021 190.271 73.0688 189.562 73.1938C188.854 73.3188 188.167 73.4021 187.5 73.4438C186.854 73.4854 186.302 73.5063 185.844 73.5063C185.219 73.5063 184.438 73.4646 183.5 73.3813C182.562 73.2979 181.625 73.1417 180.688 72.9125C179.771 72.6625 178.927 72.3292 178.156 71.9125C177.406 71.4958 176.885 70.9646 176.594 70.3188C176.365 69.8396 176.208 69.2979 176.125 68.6938C176.062 68.0688 176.031 67.4854 176.031 66.9438C176.031 65.1521 176.219 63.3292 176.594 61.475C176.969 59.6208 177.385 57.7354 177.844 55.8188C178.302 53.9021 178.719 51.9646 179.094 50.0063C179.469 48.0271 179.656 46.0271 179.656 44.0063C179.656 42.1521 179.458 40.4229 179.062 38.8188C178.688 37.1938 178.062 35.5688 177.188 33.9438C177.062 33.7146 176.948 33.475 176.844 33.225C176.76 32.975 176.719 32.7042 176.719 32.4125C176.719 31.8917 176.875 31.4438 177.188 31.0688C177.5 30.6938 177.906 30.3708 178.406 30.1C178.927 29.8292 179.5 29.6104 180.125 29.4438C180.75 29.2771 181.375 29.1417 182 29.0375C182.625 28.9333 183.219 28.8708 183.781 28.85C184.344 28.8083 184.812 28.7875 185.188 28.7875C185.604 28.7875 186.177 28.8188 186.906 28.8813C187.656 28.9229 188.406 29.0271 189.156 29.1938C189.906 29.3604 190.573 29.6104 191.156 29.9438C191.74 30.2563 192.073 30.6833 192.156 31.225C192.26 31.975 192.448 32.6417 192.719 33.225C192.99 33.7875 193.365 34.3708 193.844 34.975C194.052 35.2458 194.396 35.6625 194.875 36.225C195.375 36.7667 195.906 37.3083 196.469 37.85C197.052 38.3917 197.615 38.8708 198.156 39.2875C198.719 39.6833 199.167 39.8813 199.5 39.8813C199.667 39.8813 199.781 39.8188 199.844 39.6938C199.906 39.5688 199.938 39.4333 199.938 39.2875C199.938 38.725 199.844 38.1521 199.656 37.5688C199.469 36.9646 199.25 36.3708 199 35.7875C198.771 35.2042 198.562 34.6417 198.375 34.1C198.188 33.5375 198.094 33.0063 198.094 32.5063C198.094 31.7354 198.385 31.1208 198.969 30.6625C199.573 30.1833 200.292 29.8188 201.125 29.5688C201.958 29.2979 202.802 29.1208 203.656 29.0375C204.531 28.9333 205.25 28.8813 205.812 28.8813C206.375 28.8813 207.094 28.9333 207.969 29.0375C208.865 29.1208 209.74 29.2979 210.594 29.5688C211.448 29.8188 212.177 30.1833 212.781 30.6625C213.406 31.1417 213.719 31.7667 213.719 32.5375C213.719 32.7875 213.677 33.0271 213.594 33.2563C213.531 33.4854 213.448 33.7146 213.344 33.9438C212.677 35.3604 212.188 36.7563 211.875 38.1313C211.562 39.4854 211.406 40.9438 211.406 42.5063C211.406 43.7771 211.49 45.0479 211.656 46.3188C211.823 47.5688 212.031 48.8188 212.281 50.0688C212.552 51.2979 212.854 52.5271 213.188 53.7563C213.542 54.9854 213.896 56.2042 214.25 57.4125C214.5 58.225 214.75 59.0583 215 59.9125C215.25 60.7667 215.469 61.6208 215.656 62.475C215.865 63.3292 216.031 64.1938 216.156 65.0688C216.302 65.9438 216.375 66.8083 216.375 67.6625C216.375 68.1 216.344 68.5479 216.281 69.0063C216.24 69.4646 216.135 69.9021 215.969 70.3188C215.719 70.9854 215.219 71.5375 214.469 71.975C213.74 72.3917 212.917 72.725 212 72.975C211.104 73.2042 210.198 73.3708 209.281 73.475C208.385 73.5583 207.625 73.6 207 73.6ZM228.031 73.5063C226.885 73.5063 225.76 73.3708 224.656 73.1C223.552 72.8083 222.573 72.3604 221.719 71.7563C220.865 71.1521 220.177 70.3813 219.656 69.4438C219.135 68.5063 218.875 67.3917 218.875 66.1C218.875 64.3917 219.042 62.6833 219.375 60.975C219.708 59.2667 220.073 57.5479 220.469 55.8188C220.865 54.0688 221.229 52.3083 221.562 50.5375C221.896 48.7458 222.062 46.9229 222.062 45.0688C222.062 43.2979 221.885 41.6208 221.531 40.0375C221.198 38.4542 220.667 36.85 219.938 35.225C219.812 34.9333 219.698 34.6417 219.594 34.35C219.51 34.0375 219.469 33.7146 219.469 33.3813C219.469 32.4854 219.76 31.7458 220.344 31.1625C220.948 30.5583 221.667 30.0896 222.5 29.7563C223.354 29.4021 224.24 29.1625 225.156 29.0375C226.094 28.8917 226.906 28.8188 227.594 28.8188C228.385 28.8188 229.25 28.8917 230.188 29.0375C231.125 29.1833 232 29.4438 232.812 29.8188C233.646 30.1938 234.333 30.7042 234.875 31.35C235.438 31.9958 235.719 32.8188 235.719 33.8188C235.719 34.1729 235.677 34.5792 235.594 35.0375C235.51 35.4958 235.406 35.9646 235.281 36.4438C235.156 36.9229 235.031 37.3917 234.906 37.85C234.802 38.3083 234.719 38.725 234.656 39.1C234.49 40.0792 234.375 41.0583 234.312 42.0375C234.271 42.9958 234.25 43.9646 234.25 44.9438C234.25 48.3813 234.542 51.7771 235.125 55.1313C235.708 58.4646 236.531 61.7563 237.594 65.0063C237.698 65.3188 237.781 65.6313 237.844 65.9438C237.906 66.2563 237.938 66.5792 237.938 66.9125C237.938 68.1 237.604 69.1104 236.938 69.9438C236.271 70.7771 235.438 71.4646 234.438 72.0063C233.438 72.5271 232.354 72.9125 231.188 73.1625C230.042 73.3917 228.99 73.5063 228.031 73.5063Z" fill="#F0D9D1"/>
<path d="M29.9688 43.8125C30.4479 43.8125 31.0208 43.7604 31.6875 43.6562C32.3542 43.5521 32.9896 43.375 33.5938 43.125C34.1979 42.875 34.7083 42.5417 35.125 42.125C35.5625 41.6875 35.7812 41.1458 35.7812 40.5C35.7812 39.9583 35.6146 39.5208 35.2812 39.1875C34.9688 38.8542 34.5833 38.5938 34.125 38.4062C33.6667 38.2188 33.1771 38.0938 32.6562 38.0312C32.1354 37.9479 31.6771 37.9062 31.2812 37.9062C30.7812 37.9062 30.2396 37.9375 29.6562 38C29.0729 38.0625 28.5208 38.1979 28 38.4062C27.5 38.6146 27.0833 38.9167 26.75 39.3125C26.4167 39.6875 26.25 40.2083 26.25 40.875C26.25 41.375 26.3646 41.8125 26.5938 42.1875C26.8229 42.5417 27.1146 42.8438 27.4688 43.0938C27.8229 43.3438 28.2188 43.5312 28.6562 43.6562C29.0938 43.7604 29.5312 43.8125 29.9688 43.8125ZM29.5312 72.1562C29.0312 72.1562 28.5208 72.1146 28 72.0312C27.5 71.9479 27 71.8542 26.5 71.75C26 71.6458 25.5 71.5521 25 71.4688C24.5 71.3854 24 71.3438 23.5 71.3438C23.1667 71.3438 22.8333 71.3854 22.5 71.4688C22.1875 71.5521 21.8646 71.6458 21.5312 71.75C21.2188 71.8542 20.9062 71.9479 20.5938 72.0312C20.2812 72.1146 19.9479 72.1562 19.5938 72.1562C18.3438 72.1562 17.2396 72.0521 16.2812 71.8438C15.3229 71.6354 14.5104 71.2708 13.8438 70.75C13.1979 70.2292 12.6979 69.5417 12.3438 68.6875C12.0104 67.8125 11.8438 66.7083 11.8438 65.375C11.8438 63.625 12 61.8542 12.3125 60.0625C12.6458 58.2708 13 56.4583 13.375 54.625C13.75 52.7708 14.0938 50.9062 14.4062 49.0312C14.7396 47.1354 14.9062 45.2188 14.9062 43.2812C14.9062 41.2396 14.6875 39.3542 14.25 37.625C13.8333 35.8958 13.1354 34.1354 12.1562 32.3438C12.0312 32.1146 11.9167 31.875 11.8125 31.625C11.7083 31.3542 11.6562 31.0729 11.6562 30.7812C11.6562 30.0729 11.9271 29.5 12.4688 29.0625C13.0312 28.6042 13.6875 28.25 14.4375 28C15.2083 27.75 15.9896 27.5833 16.7812 27.5C17.5938 27.3958 18.2604 27.3438 18.7812 27.3438C20.7812 27.3438 22.6875 27.7188 24.5 28.4688C25.8125 28.1146 27.1458 27.8333 28.5 27.625C29.8542 27.4167 31.2188 27.3125 32.5938 27.3125C34.3438 27.3125 36.1042 27.5417 37.875 28C39.6458 28.4583 41.2396 29.1667 42.6562 30.125C44.0938 31.0833 45.2604 32.3021 46.1562 33.7812C47.0521 35.2396 47.5 36.9688 47.5 38.9688C47.5 40.8021 47.0729 42.4688 46.2188 43.9688C45.3646 45.4688 44.2396 46.7708 42.8438 47.875C43.8854 48.3958 44.875 49.0208 45.8125 49.75C46.7708 50.4792 47.6042 51.3021 48.3125 52.2188C49.0417 53.1354 49.6146 54.1458 50.0312 55.25C50.4479 56.3333 50.6562 57.4896 50.6562 58.7188C50.6562 60.4479 50.3229 61.9896 49.6562 63.3438C48.9896 64.6771 48.0938 65.8438 46.9688 66.8438C45.8646 67.8229 44.5833 68.6562 43.125 69.3438C41.6875 70.0104 40.1875 70.5625 38.625 71C37.0625 71.4167 35.4896 71.7188 33.9062 71.9062C32.3438 72.0729 30.8854 72.1562 29.5312 72.1562ZM32.4062 59.125C32.9688 59.125 33.5938 59.0729 34.2812 58.9688C34.9896 58.8646 35.6458 58.6771 36.25 58.4062C36.875 58.1146 37.3958 57.7396 37.8125 57.2812C38.2292 56.8021 38.4375 56.1979 38.4375 55.4688C38.4375 54.7396 38.2188 54.1562 37.7812 53.7188C37.3438 53.2812 36.8021 52.9479 36.1562 52.7188C35.5312 52.4688 34.8646 52.3021 34.1562 52.2188C33.4479 52.1354 32.8333 52.0938 32.3125 52.0938C31.8542 52.0938 31.3646 52.1458 30.8438 52.25C30.3438 52.3542 29.8854 52.5208 29.4688 52.75C29.0521 52.9792 28.7083 53.2917 28.4375 53.6875C28.1667 54.0833 28.0312 54.5625 28.0312 55.125C28.0312 55.6875 28.1562 56.2083 28.4062 56.6875C28.6771 57.1667 29.0208 57.5938 29.4375 57.9688C29.8542 58.3229 30.3229 58.6042 30.8438 58.8125C31.3646 59.0208 31.8854 59.125 32.4062 59.125ZM70.25 72C68.1875 72 66.3021 71.7083 64.5938 71.125C62.8854 70.5417 61.3542 69.7292 60 68.6875C58.6458 67.6458 57.4583 66.4271 56.4375 65.0312C55.4167 63.6146 54.5625 62.0833 53.875 60.4375C53.2083 58.7708 52.7083 57.0312 52.375 55.2188C52.0417 53.3854 51.875 51.5417 51.875 49.6875C51.875 47.8542 52.0417 46.0312 52.375 44.2188C52.7083 42.3854 53.2083 40.6354 53.875 38.9688C54.5417 37.3021 55.375 35.75 56.375 34.3125C57.3958 32.875 58.5833 31.6354 59.9375 30.5938C61.2917 29.5312 62.8125 28.7083 64.5 28.125C66.2083 27.5208 68.0938 27.2188 70.1562 27.2188C72.2396 27.2188 74.1458 27.5208 75.875 28.125C77.625 28.7083 79.1875 29.5312 80.5625 30.5938C81.9583 31.6354 83.1771 32.875 84.2188 34.3125C85.2604 35.75 86.125 37.3125 86.8125 39C87.5208 40.6667 88.0417 42.4271 88.375 44.2812C88.7292 46.1146 88.9062 47.9688 88.9062 49.8438C88.9062 51.7188 88.7292 53.5729 88.375 55.4062C88.0417 57.2188 87.5208 58.9479 86.8125 60.5938C86.125 62.2396 85.2604 63.7604 84.2188 65.1562C83.1979 66.5521 81.9896 67.7604 80.5938 68.7812C79.2188 69.7812 77.6667 70.5729 75.9375 71.1562C74.2083 71.7188 72.3125 72 70.25 72ZM70.9375 56.8125C71.5208 56.8125 72.0208 56.6146 72.4375 56.2188C72.875 55.8021 73.25 55.2708 73.5625 54.625C73.875 53.9792 74.125 53.2604 74.3125 52.4688C74.5208 51.6562 74.6771 50.8646 74.7812 50.0938C74.9062 49.3021 74.9896 48.5625 75.0312 47.875C75.0729 47.1875 75.0938 46.6354 75.0938 46.2188C75.0938 45.7396 75.0729 45.1458 75.0312 44.4375C74.9896 43.7292 74.9062 42.9792 74.7812 42.1875C74.6562 41.3958 74.4792 40.6146 74.25 39.8438C74.0417 39.0729 73.7604 38.375 73.4062 37.75C73.0521 37.125 72.625 36.625 72.125 36.25C71.6458 35.8542 71.0625 35.6562 70.375 35.6562C69.7708 35.6562 69.2396 35.8438 68.7812 36.2188C68.3229 36.5729 67.9375 37.0417 67.625 37.625C67.3125 38.1875 67.0521 38.8333 66.8438 39.5625C66.6562 40.2917 66.5 41.0208 66.375 41.75C66.2708 42.4583 66.1979 43.1458 66.1562 43.8125C66.1146 44.4583 66.0938 45 66.0938 45.4375C66.0938 45.9167 66.1146 46.5312 66.1562 47.2812C66.2188 48.0312 66.3125 48.8333 66.4375 49.6875C66.5833 50.5208 66.7708 51.3646 67 52.2188C67.2292 53.0729 67.5208 53.8438 67.875 54.5312C68.2292 55.1979 68.6562 55.75 69.1562 56.1875C69.6562 56.6042 70.25 56.8125 70.9375 56.8125ZM121.375 72C120.562 72 119.604 71.9375 118.5 71.8125C117.396 71.6667 116.333 71.4062 115.312 71.0312C114.312 70.6354 113.458 70.1042 112.75 69.4375C112.042 68.75 111.688 67.8646 111.688 66.7812C111.688 66.5938 111.698 66.4167 111.719 66.25C111.74 66.0625 111.771 65.875 111.812 65.6875C112.104 64.3333 112.354 63 112.562 61.6875C112.792 60.375 112.906 59.0208 112.906 57.625C112.906 55.2917 112.573 53.0938 111.906 51.0312C111.26 48.9479 110.208 46.9896 108.75 45.1562C108.646 45.0104 108.458 44.7812 108.188 44.4688C107.938 44.1562 107.667 43.8438 107.375 43.5312C107.083 43.1979 106.781 42.9062 106.469 42.6562C106.177 42.4062 105.927 42.2812 105.719 42.2812C105.594 42.2812 105.49 42.3333 105.406 42.4375C105.323 42.5208 105.26 42.625 105.219 42.75C105.198 42.875 105.177 43.0104 105.156 43.1562C105.156 43.2812 105.156 43.3958 105.156 43.5C105.156 44.5 105.219 45.5 105.344 46.5C105.469 47.4792 105.583 48.4688 105.688 49.4688C105.979 52.2812 106.385 55.0312 106.906 57.7188C107.427 60.4062 108.24 63.0625 109.344 65.6875C109.448 65.9583 109.542 66.2292 109.625 66.5C109.708 66.7708 109.75 67.0521 109.75 67.3438C109.75 67.9896 109.573 68.5521 109.219 69.0312C108.885 69.5104 108.448 69.9167 107.906 70.25C107.365 70.5833 106.74 70.8646 106.031 71.0938C105.344 71.3021 104.646 71.4688 103.938 71.5938C103.229 71.7188 102.542 71.8021 101.875 71.8438C101.229 71.8854 100.677 71.9062 100.219 71.9062C99.5938 71.9062 98.8125 71.8646 97.875 71.7812C96.9375 71.6979 96 71.5417 95.0625 71.3125C94.1458 71.0625 93.3021 70.7292 92.5312 70.3125C91.7812 69.8958 91.2604 69.3646 90.9688 68.7188C90.7396 68.2396 90.5833 67.6979 90.5 67.0938C90.4375 66.4688 90.4062 65.8854 90.4062 65.3438C90.4062 63.5521 90.5938 61.7292 90.9688 59.875C91.3438 58.0208 91.7604 56.1354 92.2188 54.2188C92.6771 52.3021 93.0938 50.3646 93.4688 48.4062C93.8438 46.4271 94.0312 44.4271 94.0312 42.4062C94.0312 40.5521 93.8333 38.8229 93.4375 37.2188C93.0625 35.5938 92.4375 33.9688 91.5625 32.3438C91.4375 32.1146 91.3229 31.875 91.2188 31.625C91.1354 31.375 91.0938 31.1042 91.0938 30.8125C91.0938 30.2917 91.25 29.8438 91.5625 29.4688C91.875 29.0938 92.2812 28.7708 92.7812 28.5C93.3021 28.2292 93.875 28.0104 94.5 27.8438C95.125 27.6771 95.75 27.5417 96.375 27.4375C97 27.3333 97.5938 27.2708 98.1562 27.25C98.7188 27.2083 99.1875 27.1875 99.5625 27.1875C99.9792 27.1875 100.552 27.2188 101.281 27.2812C102.031 27.3229 102.781 27.4271 103.531 27.5938C104.281 27.7604 104.948 28.0104 105.531 28.3438C106.115 28.6562 106.448 29.0833 106.531 29.625C106.635 30.375 106.823 31.0417 107.094 31.625C107.365 32.1875 107.74 32.7708 108.219 33.375C108.427 33.6458 108.771 34.0625 109.25 34.625C109.75 35.1667 110.281 35.7083 110.844 36.25C111.427 36.7917 111.99 37.2708 112.531 37.6875C113.094 38.0833 113.542 38.2812 113.875 38.2812C114.042 38.2812 114.156 38.2188 114.219 38.0938C114.281 37.9688 114.312 37.8333 114.312 37.6875C114.312 37.125 114.219 36.5521 114.031 35.9688C113.844 35.3646 113.625 34.7708 113.375 34.1875C113.146 33.6042 112.938 33.0417 112.75 32.5C112.562 31.9375 112.469 31.4062 112.469 30.9062C112.469 30.1354 112.76 29.5208 113.344 29.0625C113.948 28.5833 114.667 28.2188 115.5 27.9688C116.333 27.6979 117.177 27.5208 118.031 27.4375C118.906 27.3333 119.625 27.2812 120.188 27.2812C120.75 27.2812 121.469 27.3333 122.344 27.4375C123.24 27.5208 124.115 27.6979 124.969 27.9688C125.823 28.2188 126.552 28.5833 127.156 29.0625C127.781 29.5417 128.094 30.1667 128.094 30.9375C128.094 31.1875 128.052 31.4271 127.969 31.6562C127.906 31.8854 127.823 32.1146 127.719 32.3438C127.052 33.7604 126.562 35.1562 126.25 36.5312C125.938 37.8854 125.781 39.3438 125.781 40.9062C125.781 42.1771 125.865 43.4479 126.031 44.7188C126.198 45.9688 126.406 47.2188 126.656 48.4688C126.927 49.6979 127.229 50.9271 127.562 52.1562C127.917 53.3854 128.271 54.6042 128.625 55.8125C128.875 56.625 129.125 57.4583 129.375 58.3125C129.625 59.1667 129.844 60.0208 130.031 60.875C130.24 61.7292 130.406 62.5938 130.531 63.4688C130.677 64.3438 130.75 65.2083 130.75 66.0625C130.75 66.5 130.719 66.9479 130.656 67.4062C130.615 67.8646 130.51 68.3021 130.344 68.7188C130.094 69.3854 129.594 69.9375 128.844 70.375C128.115 70.7917 127.292 71.125 126.375 71.375C125.479 71.6042 124.573 71.7708 123.656 71.875C122.76 71.9583 122 72 121.375 72ZM142.562 71.9375C141.438 71.9375 140.292 71.8021 139.125 71.5312C137.979 71.2396 136.948 70.7917 136.031 70.1875C135.115 69.5833 134.365 68.8125 133.781 67.875C133.198 66.9375 132.906 65.8229 132.906 64.5312C132.906 62.5521 133.198 60.6562 133.781 58.8438C134.365 57.0312 135.062 55.25 135.875 53.5C136.708 51.75 137.573 50.0104 138.469 48.2812C139.385 46.5521 140.167 44.7812 140.812 42.9688C141.458 41.1771 141.896 39.3646 142.125 37.5312C142.375 35.6771 142.531 33.8021 142.594 31.9062C142.615 31.2396 142.802 30.6667 143.156 30.1875C143.531 29.6875 144 29.2708 144.562 28.9375C145.146 28.5833 145.792 28.2917 146.5 28.0625C147.229 27.8333 147.958 27.6562 148.688 27.5312C149.417 27.4062 150.115 27.3229 150.781 27.2812C151.448 27.2396 152.021 27.2188 152.5 27.2188C153.021 27.2188 153.615 27.2396 154.281 27.2812C154.969 27.3229 155.677 27.4167 156.406 27.5625C157.156 27.6875 157.885 27.8646 158.594 28.0938C159.302 28.3229 159.938 28.625 160.5 29C161.062 29.3542 161.51 29.7917 161.844 30.3125C162.198 30.8333 162.375 31.4479 162.375 32.1562C162.375 33.4688 162.427 34.7708 162.531 36.0625C162.656 37.3333 162.875 38.5938 163.188 39.8438C163.542 41.3229 164 42.7604 164.562 44.1562C165.125 45.5312 165.719 46.8854 166.344 48.2188C166.99 49.5521 167.635 50.875 168.281 52.1875C168.948 53.4792 169.542 54.7812 170.062 56.0938C170.583 57.4062 171.01 58.75 171.344 60.125C171.677 61.4792 171.844 62.875 171.844 64.3125C171.844 65.625 171.562 66.7604 171 67.7188C170.458 68.6771 169.74 69.4688 168.844 70.0938C167.948 70.7188 166.927 71.1771 165.781 71.4688C164.656 71.7604 163.51 71.9062 162.344 71.9062C161.51 71.9062 160.677 71.8333 159.844 71.6875C159.031 71.5208 158.26 71.2396 157.531 70.8438C156.802 70.4688 156.281 70.0208 155.969 69.5C155.677 68.9583 155.49 68.3854 155.406 67.7812C155.344 67.1562 155.333 66.5208 155.375 65.875C155.438 65.2083 155.469 64.5729 155.469 63.9688C155.49 63.3646 155.427 62.8021 155.281 62.2812C155.135 61.7604 154.823 61.3229 154.344 60.9688C153.656 60.5104 152.927 60.2812 152.156 60.2812C151.219 60.2812 150.49 60.5625 149.969 61.125C149.469 61.6667 149.219 62.3958 149.219 63.3125V68.25C149.219 68.9792 148.969 69.5833 148.469 70.0625C147.99 70.5208 147.406 70.8958 146.719 71.1875C146.031 71.4583 145.302 71.6562 144.531 71.7812C143.781 71.8854 143.125 71.9375 142.562 71.9375ZM152.062 53.4688C152.854 53.4688 153.438 53.1979 153.812 52.6562C154.208 52.0938 154.406 51.4479 154.406 50.7188C154.406 50.4896 154.385 50.1354 154.344 49.6562C154.323 49.1771 154.281 48.6354 154.219 48.0312C154.156 47.4062 154.062 46.7708 153.938 46.125C153.833 45.4792 153.688 44.8958 153.5 44.375C153.333 43.8333 153.125 43.3958 152.875 43.0625C152.646 42.7083 152.365 42.5312 152.031 42.5312C151.719 42.5312 151.448 42.7188 151.219 43.0938C150.99 43.4479 150.792 43.9167 150.625 44.5C150.479 45.0625 150.354 45.6875 150.25 46.375C150.146 47.0625 150.062 47.7292 150 48.375C149.938 49 149.896 49.5729 149.875 50.0938C149.854 50.5938 149.844 50.9479 149.844 51.1562C149.844 51.8229 150.042 52.375 150.438 52.8125C150.854 53.25 151.396 53.4688 152.062 53.4688ZM205.5 72C204.688 72 203.729 71.9375 202.625 71.8125C201.521 71.6667 200.458 71.4062 199.438 71.0312C198.438 70.6354 197.583 70.1042 196.875 69.4375C196.167 68.75 195.812 67.8646 195.812 66.7812C195.812 66.5938 195.823 66.4167 195.844 66.25C195.865 66.0625 195.896 65.875 195.938 65.6875C196.229 64.3333 196.479 63 196.688 61.6875C196.917 60.375 197.031 59.0208 197.031 57.625C197.031 55.2917 196.698 53.0938 196.031 51.0312C195.385 48.9479 194.333 46.9896 192.875 45.1562C192.771 45.0104 192.583 44.7812 192.312 44.4688C192.062 44.1562 191.792 43.8438 191.5 43.5312C191.208 43.1979 190.906 42.9062 190.594 42.6562C190.302 42.4062 190.052 42.2812 189.844 42.2812C189.719 42.2812 189.615 42.3333 189.531 42.4375C189.448 42.5208 189.385 42.625 189.344 42.75C189.323 42.875 189.302 43.0104 189.281 43.1562C189.281 43.2812 189.281 43.3958 189.281 43.5C189.281 44.5 189.344 45.5 189.469 46.5C189.594 47.4792 189.708 48.4688 189.812 49.4688C190.104 52.2812 190.51 55.0312 191.031 57.7188C191.552 60.4062 192.365 63.0625 193.469 65.6875C193.573 65.9583 193.667 66.2292 193.75 66.5C193.833 66.7708 193.875 67.0521 193.875 67.3438C193.875 67.9896 193.698 68.5521 193.344 69.0312C193.01 69.5104 192.573 69.9167 192.031 70.25C191.49 70.5833 190.865 70.8646 190.156 71.0938C189.469 71.3021 188.771 71.4688 188.062 71.5938C187.354 71.7188 186.667 71.8021 186 71.8438C185.354 71.8854 184.802 71.9062 184.344 71.9062C183.719 71.9062 182.938 71.8646 182 71.7812C181.062 71.6979 180.125 71.5417 179.188 71.3125C178.271 71.0625 177.427 70.7292 176.656 70.3125C175.906 69.8958 175.385 69.3646 175.094 68.7188C174.865 68.2396 174.708 67.6979 174.625 67.0938C174.562 66.4688 174.531 65.8854 174.531 65.3438C174.531 63.5521 174.719 61.7292 175.094 59.875C175.469 58.0208 175.885 56.1354 176.344 54.2188C176.802 52.3021 177.219 50.3646 177.594 48.4062C177.969 46.4271 178.156 44.4271 178.156 42.4062C178.156 40.5521 177.958 38.8229 177.562 37.2188C177.188 35.5938 176.562 33.9688 175.688 32.3438C175.562 32.1146 175.448 31.875 175.344 31.625C175.26 31.375 175.219 31.1042 175.219 30.8125C175.219 30.2917 175.375 29.8438 175.688 29.4688C176 29.0938 176.406 28.7708 176.906 28.5C177.427 28.2292 178 28.0104 178.625 27.8438C179.25 27.6771 179.875 27.5417 180.5 27.4375C181.125 27.3333 181.719 27.2708 182.281 27.25C182.844 27.2083 183.312 27.1875 183.688 27.1875C184.104 27.1875 184.677 27.2188 185.406 27.2812C186.156 27.3229 186.906 27.4271 187.656 27.5938C188.406 27.7604 189.073 28.0104 189.656 28.3438C190.24 28.6562 190.573 29.0833 190.656 29.625C190.76 30.375 190.948 31.0417 191.219 31.625C191.49 32.1875 191.865 32.7708 192.344 33.375C192.552 33.6458 192.896 34.0625 193.375 34.625C193.875 35.1667 194.406 35.7083 194.969 36.25C195.552 36.7917 196.115 37.2708 196.656 37.6875C197.219 38.0833 197.667 38.2812 198 38.2812C198.167 38.2812 198.281 38.2188 198.344 38.0938C198.406 37.9688 198.438 37.8333 198.438 37.6875C198.438 37.125 198.344 36.5521 198.156 35.9688C197.969 35.3646 197.75 34.7708 197.5 34.1875C197.271 33.6042 197.062 33.0417 196.875 32.5C196.688 31.9375 196.594 31.4062 196.594 30.9062C196.594 30.1354 196.885 29.5208 197.469 29.0625C198.073 28.5833 198.792 28.2188 199.625 27.9688C200.458 27.6979 201.302 27.5208 202.156 27.4375C203.031 27.3333 203.75 27.2812 204.312 27.2812C204.875 27.2812 205.594 27.3333 206.469 27.4375C207.365 27.5208 208.24 27.6979 209.094 27.9688C209.948 28.2188 210.677 28.5833 211.281 29.0625C211.906 29.5417 212.219 30.1667 212.219 30.9375C212.219 31.1875 212.177 31.4271 212.094 31.6562C212.031 31.8854 211.948 32.1146 211.844 32.3438C211.177 33.7604 210.688 35.1562 210.375 36.5312C210.062 37.8854 209.906 39.3438 209.906 40.9062C209.906 42.1771 209.99 43.4479 210.156 44.7188C210.323 45.9688 210.531 47.2188 210.781 48.4688C211.052 49.6979 211.354 50.9271 211.688 52.1562C212.042 53.3854 212.396 54.6042 212.75 55.8125C213 56.625 213.25 57.4583 213.5 58.3125C213.75 59.1667 213.969 60.0208 214.156 60.875C214.365 61.7292 214.531 62.5938 214.656 63.4688C214.802 64.3438 214.875 65.2083 214.875 66.0625C214.875 66.5 214.844 66.9479 214.781 67.4062C214.74 67.8646 214.635 68.3021 214.469 68.7188C214.219 69.3854 213.719 69.9375 212.969 70.375C212.24 70.7917 211.417 71.125 210.5 71.375C209.604 71.6042 208.698 71.7708 207.781 71.875C206.885 71.9583 206.125 72 205.5 72ZM226.531 71.9062C225.385 71.9062 224.26 71.7708 223.156 71.5C222.052 71.2083 221.073 70.7604 220.219 70.1562C219.365 69.5521 218.677 68.7812 218.156 67.8438C217.635 66.9062 217.375 65.7917 217.375 64.5C217.375 62.7917 217.542 61.0833 217.875 59.375C218.208 57.6667 218.573 55.9479 218.969 54.2188C219.365 52.4688 219.729 50.7083 220.062 48.9375C220.396 47.1458 220.562 45.3229 220.562 43.4688C220.562 41.6979 220.385 40.0208 220.031 38.4375C219.698 36.8542 219.167 35.25 218.438 33.625C218.312 33.3333 218.198 33.0417 218.094 32.75C218.01 32.4375 217.969 32.1146 217.969 31.7812C217.969 30.8854 218.26 30.1458 218.844 29.5625C219.448 28.9583 220.167 28.4896 221 28.1562C221.854 27.8021 222.74 27.5625 223.656 27.4375C224.594 27.2917 225.406 27.2188 226.094 27.2188C226.885 27.2188 227.75 27.2917 228.688 27.4375C229.625 27.5833 230.5 27.8438 231.312 28.2188C232.146 28.5938 232.833 29.1042 233.375 29.75C233.938 30.3958 234.219 31.2188 234.219 32.2188C234.219 32.5729 234.177 32.9792 234.094 33.4375C234.01 33.8958 233.906 34.3646 233.781 34.8438C233.656 35.3229 233.531 35.7917 233.406 36.25C233.302 36.7083 233.219 37.125 233.156 37.5C232.99 38.4792 232.875 39.4583 232.812 40.4375C232.771 41.3958 232.75 42.3646 232.75 43.3438C232.75 46.7812 233.042 50.1771 233.625 53.5312C234.208 56.8646 235.031 60.1562 236.094 63.4062C236.198 63.7188 236.281 64.0312 236.344 64.3438C236.406 64.6562 236.438 64.9792 236.438 65.3125C236.438 66.5 236.104 67.5104 235.438 68.3438C234.771 69.1771 233.938 69.8646 232.938 70.4062C231.938 70.9271 230.854 71.3125 229.688 71.5625C228.542 71.7917 227.49 71.9062 226.531 71.9062Z" fill="#DDB7AC"/>
</svg>
